<?xml version="1.0" encoding="utf-8"?>
<svg viewBox="0 0 500 500" xmlns="http://www.w3.org/2000/svg">
  <g fill="none" fill-rule="evenodd" transform="matrix(1, 0, 0, 1, 1.249407, 1.235562)">
    <g fill="none" fill-rule="evenodd" transform="matrix(1, 0, 0, 1, 134.123112, 15.06772)">
      <path fill="#000" d="M -122.197 -15.113 L -122.197 -4.734 L -123.428 -4.734 L -123.428 -12.361 C -123.428 -12.462 -123.425 -12.571 -123.418 -12.687 C -123.41 -12.803 -123.402 -12.921 -123.392 -13.042 L -126.955 -6.553 C -127.066 -6.336 -127.235 -6.227 -127.462 -6.227 L -127.665 -6.227 C -127.892 -6.227 -128.061 -6.336 -128.172 -6.553 L -131.807 -13.071 C -131.778 -12.815 -131.764 -12.578 -131.764 -12.361 L -131.764 -4.735 L -132.994 -4.735 L -132.994 -15.114 L -131.959 -15.114 C -131.861 -15.117 -131.763 -15.105 -131.669 -15.078 C -131.602 -15.053 -131.537 -14.986 -131.474 -14.875 L -127.889 -8.488 C -127.768 -8.244 -127.66 -7.995 -127.564 -7.742 C -127.515 -7.872 -127.464 -8.002 -127.411 -8.129 C -127.358 -8.257 -127.301 -8.379 -127.238 -8.495 L -123.718 -14.875 C -123.66 -14.985 -123.596 -15.053 -123.526 -15.078 C -123.431 -15.105 -123.332 -15.117 -123.233 -15.114 L -122.197 -15.114 Z M -113.895 -5.851 C -113.465 -5.851 -113.081 -5.923 -112.743 -6.068 C -112.405 -6.213 -112.119 -6.415 -111.885 -6.676 C -111.644 -6.947 -111.462 -7.265 -111.349 -7.61 C -111.226 -7.972 -111.164 -8.37 -111.164 -8.805 L -111.164 -15.114 L -109.767 -15.114 L -109.767 -8.804 C -109.767 -8.206 -109.862 -7.65 -110.053 -7.139 C -110.232 -6.644 -110.51 -6.192 -110.871 -5.809 C -111.237 -5.427 -111.68 -5.127 -112.171 -4.929 C -112.683 -4.717 -113.257 -4.611 -113.895 -4.611 C -114.532 -4.611 -115.106 -4.717 -115.618 -4.93 C -116.109 -5.128 -116.554 -5.428 -116.922 -5.81 C -117.284 -6.192 -117.564 -6.644 -117.744 -7.139 C -117.938 -7.672 -118.035 -8.236 -118.03 -8.804 L -118.03 -15.114 L -116.632 -15.114 L -116.632 -8.814 C -116.632 -8.379 -116.57 -7.981 -116.447 -7.619 C -116.324 -7.256 -116.146 -6.945 -115.911 -6.684 C -115.677 -6.424 -115.391 -6.22 -115.05 -6.072 C -114.71 -5.925 -114.324 -5.852 -113.895 -5.852 Z M -99.712 -5.916 L -99.712 -4.736 L -105.599 -4.736 L -105.599 -15.112 L -104.201 -15.112 L -104.201 -5.915 L -99.711 -5.915 Z M -90.634 -13.932 L -93.994 -13.932 L -93.994 -4.735 L -95.392 -4.735 L -95.392 -13.932 L -98.759 -13.932 L -98.759 -15.112 L -90.634 -15.112 L -90.634 -13.932 Z M -87.379 -4.735 L -88.784 -4.735 L -88.784 -15.114 L -87.379 -15.114 L -87.379 -4.734 Z M -77.271 -14.004 L -80.631 -14.004 L -80.631 -4.807 L -82.028 -4.807 L -82.028 -14.004 L -85.396 -14.004 L -85.396 -15.184 L -77.271 -15.184 L -77.271 -14.004 Z M -67.021 -9.992 C -67.013 -9.262 -67.138 -8.536 -67.391 -7.852 C -67.621 -7.228 -67.975 -6.658 -68.433 -6.176 C -68.889 -5.702 -69.441 -5.331 -70.052 -5.086 C -70.716 -4.82 -71.426 -4.689 -72.142 -4.698 C -72.904 -4.698 -73.599 -4.828 -74.227 -5.086 C -74.836 -5.331 -75.386 -5.703 -75.842 -6.176 C -76.299 -6.658 -76.654 -7.228 -76.884 -7.852 C -77.136 -8.536 -77.262 -9.262 -77.254 -9.992 C -77.254 -10.769 -77.131 -11.482 -76.884 -12.132 C -76.653 -12.756 -76.299 -13.327 -75.842 -13.812 C -75.392 -14.282 -74.854 -14.649 -74.227 -14.909 C -73.599 -15.169 -72.904 -15.3 -72.141 -15.3 C -71.378 -15.3 -70.681 -15.17 -70.051 -14.91 C -69.421 -14.649 -68.882 -14.283 -68.433 -13.812 C -67.976 -13.327 -67.621 -12.756 -67.391 -12.132 C -67.144 -11.482 -67.021 -10.769 -67.021 -9.992 Z M -68.462 -9.992 C -68.462 -10.629 -68.549 -11.202 -68.723 -11.708 C -68.878 -12.183 -69.129 -12.62 -69.462 -12.994 C -69.783 -13.345 -70.178 -13.621 -70.62 -13.801 C -71.103 -13.995 -71.62 -14.091 -72.141 -14.084 C -72.696 -14.084 -73.201 -13.99 -73.655 -13.801 C -74.097 -13.62 -74.493 -13.345 -74.817 -12.994 C -75.151 -12.621 -75.403 -12.183 -75.559 -11.708 C -75.739 -11.154 -75.827 -10.574 -75.819 -9.992 C -75.819 -9.355 -75.733 -8.784 -75.559 -8.279 C -75.385 -7.775 -75.138 -7.348 -74.817 -6.998 C -74.496 -6.648 -74.108 -6.38 -73.655 -6.194 C -73.201 -6.008 -72.696 -5.915 -72.141 -5.915 C -71.581 -5.915 -71.074 -6.008 -70.621 -6.194 C -70.167 -6.38 -69.781 -6.648 -69.461 -6.998 C -69.143 -7.348 -68.897 -7.775 -68.723 -8.279 C -68.549 -8.784 -68.463 -9.355 -68.463 -9.992 Z M -63.572 -10.637 L -63.043 -10.637 C -62.86 -10.637 -62.713 -10.66 -62.601 -10.705 C -62.481 -10.757 -62.377 -10.838 -62.297 -10.941 L -58.843 -14.851 C -58.764 -14.961 -58.66 -15.051 -58.539 -15.112 C -58.415 -15.163 -58.282 -15.188 -58.148 -15.184 L -56.96 -15.184 L -60.914 -10.716 C -61.011 -10.6 -61.104 -10.505 -61.193 -10.43 C -61.283 -10.355 -61.378 -10.294 -61.479 -10.246 C -61.349 -10.202 -61.23 -10.138 -61.124 -10.054 C -61.018 -9.969 -60.914 -9.859 -60.813 -9.724 L -56.685 -4.807 L -57.902 -4.807 C -57.993 -4.807 -58.072 -4.813 -58.137 -4.825 C -58.249 -4.844 -58.352 -4.897 -58.434 -4.977 C -58.472 -5.016 -58.507 -5.058 -58.539 -5.104 L -62.116 -9.224 C -62.198 -9.333 -62.305 -9.421 -62.428 -9.482 C -62.538 -9.532 -62.708 -9.558 -62.935 -9.558 L -63.572 -9.558 L -63.572 -4.807 L -64.969 -4.807 L -64.969 -15.184 L -63.572 -15.184 L -63.572 -10.637 Z M -48.927 -5.951 L -48.934 -4.807 L -55.328 -4.807 L -55.328 -15.184 L -48.934 -15.184 L -48.934 -14.04 L -53.924 -14.04 L -53.924 -10.593 L -49.883 -10.593 L -49.883 -9.493 L -53.923 -9.493 L -53.923 -5.951 L -48.927 -5.951 Z M -38.511 -15.184 L -38.511 -4.807 L -39.213 -4.807 C -39.309 -4.803 -39.405 -4.823 -39.492 -4.865 C -39.578 -4.913 -39.653 -4.98 -39.712 -5.06 L -45.716 -12.882 C -45.698 -12.655 -45.688 -12.428 -45.687 -12.201 L -45.687 -4.807 L -46.918 -4.807 L -46.918 -15.184 L -46.194 -15.184 C -46.14 -15.185 -46.087 -15.181 -46.034 -15.174 C -45.952 -15.16 -45.877 -15.121 -45.818 -15.064 C -45.784 -15.034 -45.748 -14.994 -45.709 -14.945 L -39.706 -7.132 C -39.716 -7.257 -39.724 -7.379 -39.731 -7.497 C -39.737 -7.609 -39.741 -7.721 -39.741 -7.834 L -39.741 -15.184 L -38.511 -15.184 Z"/>
    </g>
  </g>
</svg>